<svg width="136" height="68" viewBox="0 0 136 68" fill="none" xmlns="http://www.w3.org/2000/svg">
<circle cx="100" cy="40" r="23.5" fill="#CBFCFF" stroke="#00FFFF"/>
<circle cx="35" cy="40" r="24" fill="#CBFCFF"/>
<circle cx="35" cy="40" r="23.5" stroke="#00FFFF" stroke-opacity="0.46"/>
<circle cx="74" cy="32" r="32" fill="#CBFCFF"/>
<circle cx="74" cy="32" r="31.5" stroke="#00FFFF" stroke-opacity="0.46"/>
<mask id="path-6-inside-1_2_49" fill="white">
<path d="M36 36H100V64H36V36Z"/>
</mask>
<path d="M36 36H100V64H36V36Z" fill="#CBFCFF"/>
<path d="M100 63H36V65H100V63Z" fill="#00FFFF" mask="url(#path-6-inside-1_2_49)"/>
<path d="M135.5 53.5C135.5 61.2161 129.024 67.5 121 67.5C112.976 67.5 106.5 61.2161 106.5 53.5C106.5 45.7839 112.976 39.5 121 39.5C129.024 39.5 135.5 45.7839 135.5 53.5Z" fill="#9EF7FD" stroke="#00FFFF"/>
<circle cx="108" cy="48" r="19.5" fill="#9EF7FD" stroke="#00FFFF"/>
<path d="M100.5 53.5C100.5 61.2161 94.0242 67.5 86 67.5C77.9758 67.5 71.5 61.2161 71.5 53.5C71.5 45.7839 77.9758 39.5 86 39.5C94.0242 39.5 100.5 45.7839 100.5 53.5Z" fill="#9EF7FD" stroke="#00FFFF"/>
<mask id="path-11-inside-2_2_49" fill="white">
<path d="M86 50H121V68H86V50Z"/>
</mask>
<path d="M86 50H121V68H86V50Z" fill="#9EF7FD"/>
<path d="M121 67H86V69H121V67Z" fill="#00FFFF" mask="url(#path-11-inside-2_2_49)"/>
<path d="M79.5093 36.7109C80.4328 36.21 81.4051 37.2898 80.8104 38.156L73.4025 48.9451C73.0364 49.4784 72.2679 49.5289 71.835 49.0482L67.7385 44.4986C67.3057 44.0179 67.4363 43.2589 68.0049 42.9504L79.5093 36.7109Z" fill="#008B8B"/>
<path d="M80.8986 36.4647C81.9985 36.3193 82.4817 37.8063 81.5063 38.3352L66.3693 46.5429C65.8199 46.8409 65.1348 46.5673 64.9416 45.9729L63.0081 40.0222C62.815 39.4278 63.2084 38.8038 63.8281 38.7218L80.8986 36.4647Z" fill="#CBFCFF"/>
<path d="M91.0352 30.181C92.0855 30.154 92.4616 31.5575 91.5385 32.0593L55.6409 51.5713C55.0726 51.8802 54.3649 51.5764 54.1975 50.9515L49.2508 32.4903C49.0834 31.8655 49.5443 31.2485 50.191 31.2318L91.0352 30.181Z" fill="#008B8B"/>
<path d="M72.7378 35.6284L41.7961 43.9287C41.2361 44.0789 40.6661 43.7228 40.5554 43.1536L40.0798 40.7069C39.9692 40.1377 40.3643 39.5941 40.9399 39.5236L72.7378 35.6284Z" fill="#CBFCFF"/>
<path d="M55.5 33.5211C55.5 38.9747 50.4602 43.5 44.1062 43.5C37.7522 43.5 32.7124 38.9747 32.7124 33.5211C32.7124 28.0676 37.7522 23.5423 44.1062 23.5423C50.4602 23.5423 55.5 28.0676 55.5 33.5211Z" fill="#9EF7FD" stroke="#00FFFF"/>
<ellipse cx="11.8938" cy="33.5211" rx="11.8938" ry="10.4789" fill="#9EF7FD"/>
<path d="M23.2876 33.5211C23.2876 38.9747 18.2478 43.5 11.8938 43.5C5.53979 43.5 0.5 38.9747 0.5 33.5211C0.5 28.0676 5.53979 23.5423 11.8938 23.5423C18.2478 23.5423 23.2876 28.0676 23.2876 33.5211Z" stroke="#00FFFF" stroke-opacity="0.46"/>
<ellipse cx="25.2743" cy="26.9718" rx="15.8584" ry="13.9718" fill="#9EF7FD"/>
<path d="M40.6327 26.9718C40.6327 34.3545 33.8179 40.4437 25.2743 40.4437C16.7307 40.4437 9.91593 34.3545 9.91593 26.9718C9.91593 19.5892 16.7307 13.5 25.2743 13.5C33.8179 13.5 40.6327 19.5892 40.6327 26.9718Z" stroke="#00FFFF" stroke-opacity="0.46"/>
<mask id="path-22-inside-3_2_49" fill="white">
<path d="M12.3894 31.7747H44.1062V44H12.3894V31.7747Z"/>
</mask>
<path d="M12.3894 31.7747H44.1062V44H12.3894V31.7747Z" fill="#9EF7FD"/>
<path d="M44.1062 43H12.3894V45H44.1062V43Z" fill="#00FFFF" mask="url(#path-22-inside-3_2_49)"/>
</svg>
